<svg width="24" height="24" viewBox="0 0 24 24" fill="none" xmlns="http://www.w3.org/2000/svg">
<circle cx="12" cy="13" r="11" fill="#EEE4CD"/>
<path d="M13.002 4.38799C12.7267 4.14063 12.3696 4.00378 11.9995 4.00378C11.6294 4.00378 11.2723 4.14063 10.997 4.38799L5.497 9.32999C5.34062 9.47062 5.21556 9.64256 5.12994 9.83465C5.04432 10.0267 5.00005 10.2347 5 10.445V17.5C5 17.8978 5.15804 18.2793 5.43934 18.5607C5.72064 18.842 6.10218 19 6.5 19H8.5C8.89782 19 9.27936 18.842 9.56066 18.5607C9.84196 18.2793 10 17.8978 10 17.5V13.5C10 13.3674 10.0527 13.2402 10.1464 13.1464C10.2402 13.0527 10.3674 13 10.5 13H13.5C13.6326 13 13.7598 13.0527 13.8536 13.1464C13.9473 13.2402 14 13.3674 14 13.5V17.5C14 17.8978 14.158 18.2793 14.4393 18.5607C14.7206 18.842 15.1022 19 15.5 19H17.5C17.8978 19 18.2794 18.842 18.5607 18.5607C18.842 18.2793 19 17.8978 19 17.5V10.445C19 10.2347 18.9557 10.0267 18.8701 9.83465C18.7844 9.64256 18.6594 9.47062 18.503 9.32999L13.003 4.38799H13.002Z" fill="black"/>
</svg>
