<svg width="20" height="20" viewBox="0 0 20 20" fill="none" xmlns="http://www.w3.org/2000/svg">
<ellipse cx="9.99999" cy="10.8333" rx="9.16667" ry="9.16667" fill="#EEE4CD"/>
<path d="M6.8375 4.03663C7.03734 3.94678 7.26453 3.93926 7.46988 4.01568C7.67523 4.09211 7.84222 4.24634 7.93469 4.44498C8.02716 4.64362 8.03768 4.87069 7.96397 5.07703C7.89025 5.28337 7.73824 5.45238 7.54083 5.54746C6.3362 6.10692 5.35868 7.06089 4.77001 8.25152C4.18134 9.44215 4.0168 10.7981 4.30362 12.0949C4.59044 13.3918 5.31143 14.5519 6.34729 15.3832C7.38315 16.2146 8.67179 16.6673 10 16.6666C11.3265 16.6663 12.6132 16.2137 13.6479 15.3836C14.6826 14.5535 15.4033 13.3955 15.6912 12.1006C15.9791 10.8057 15.8169 9.4514 15.2315 8.2611C14.646 7.0708 13.6722 6.11566 12.4708 5.55329C12.3717 5.50689 12.2826 5.44142 12.2088 5.36061C12.135 5.2798 12.0778 5.18523 12.0405 5.08231C11.9651 4.87446 11.9755 4.6452 12.0692 4.44496C12.1629 4.24472 12.3323 4.08991 12.5401 4.01458C12.748 3.93926 12.9773 3.94958 13.1775 4.04329C14.4694 4.64711 15.5624 5.6069 16.328 6.81003C17.0936 8.01316 17.5002 9.40971 17.5 10.8358C17.5 14.9775 14.1417 18.3333 10 18.3333C5.85833 18.3333 2.5 14.9766 2.5 10.8366C2.49972 9.40764 2.90785 8.00835 3.67633 6.80359C4.4448 5.59884 5.5416 4.63881 6.8375 4.03663V4.03663ZM10 1.66663C10.2041 1.66665 10.4011 1.74159 10.5536 1.87722C10.7062 2.01285 10.8036 2.19975 10.8275 2.40246L10.8333 2.49996V8.33329C10.8333 8.54576 10.7521 8.7502 10.6064 8.90481C10.4606 9.05942 10.2614 9.15252 10.0493 9.16507C9.83715 9.17763 9.62827 9.1087 9.4653 8.97237C9.30233 8.83604 9.1976 8.64261 9.1725 8.43163L9.16667 8.33329V2.49996C9.16667 2.27895 9.25446 2.06698 9.41074 1.9107C9.56702 1.75442 9.77899 1.66663 10 1.66663V1.66663Z" fill="black"/>
</svg>
