<svg width="20" height="20" viewBox="0 0 20 20" fill="none" xmlns="http://www.w3.org/2000/svg">
<ellipse cx="10.8333" cy="10" rx="9.16667" ry="9.16667" fill="#EEE4CD"/>
<path fill-rule="evenodd" clip-rule="evenodd" d="M14.1667 7.50008C14.1667 8.38414 13.8155 9.23198 13.1904 9.8571C12.5652 10.4822 11.7174 10.8334 10.8333 10.8334C9.94928 10.8334 9.10143 10.4822 8.47631 9.8571C7.85119 9.23198 7.5 8.38414 7.5 7.50008C7.5 6.61603 7.85119 5.76818 8.47631 5.14306C9.10143 4.51794 9.94928 4.16675 10.8333 4.16675C11.7174 4.16675 12.5652 4.51794 13.1904 5.14306C13.8155 5.76818 14.1667 6.61603 14.1667 7.50008V7.50008ZM12.5 7.50008C12.5 7.94211 12.3244 8.36603 12.0118 8.67859C11.6993 8.99115 11.2754 9.16675 10.8333 9.16675C10.3913 9.16675 9.96738 8.99115 9.65482 8.67859C9.34226 8.36603 9.16667 7.94211 9.16667 7.50008C9.16667 7.05805 9.34226 6.63413 9.65482 6.32157C9.96738 6.00901 10.3913 5.83341 10.8333 5.83341C11.2754 5.83341 11.6993 6.00901 12.0118 6.32157C12.3244 6.63413 12.5 7.05805 12.5 7.50008V7.50008Z" fill="black"/>
<path fill-rule="evenodd" clip-rule="evenodd" d="M10.8333 0.833374C5.77083 0.833374 1.66666 4.93754 1.66666 10C1.66666 15.0625 5.77083 19.1667 10.8333 19.1667C15.8958 19.1667 20 15.0625 20 10C20 4.93754 15.8958 0.833374 10.8333 0.833374ZM3.33333 10C3.33333 11.7417 3.9275 13.345 4.92333 14.6184C5.62269 13.7 6.52491 12.9557 7.55953 12.4436C8.59414 11.9316 9.73312 11.6657 10.8875 11.6667C12.0269 11.6656 13.1516 11.9246 14.1758 12.424C15.2 12.9234 16.0966 13.65 16.7975 14.5484C17.5195 13.6014 18.0057 12.4961 18.2157 11.3239C18.4258 10.1517 18.3537 8.94632 18.0054 7.80753C17.6571 6.66873 17.0427 5.62925 16.2129 4.77507C15.3831 3.9209 14.3619 3.27659 13.2337 2.89546C12.1054 2.51434 10.9027 2.40735 9.72488 2.58335C8.5471 2.75935 7.42816 3.21328 6.46064 3.90759C5.49312 4.60189 4.70484 5.5166 4.16102 6.57604C3.6172 7.63547 3.33348 8.80918 3.33333 10V10ZM10.8333 17.5C9.11162 17.5026 7.44189 16.9103 6.10666 15.8234C6.64411 15.054 7.35945 14.4258 8.19182 13.9923C9.0242 13.5587 9.94899 13.3327 10.8875 13.3334C11.8143 13.3326 12.7279 13.553 13.5524 13.9762C14.377 14.3994 15.0886 15.0133 15.6283 15.7667C14.2827 16.889 12.5855 17.5025 10.8333 17.5V17.5Z" fill="black"/>
</svg>
